<svg width="16" height="16" viewBox="0 0 16 16" fill="none" xmlns="http://www.w3.org/2000/svg">
<g id="instagram">
<path id="Vector" d="M11.3333 1.33331H4.66668C2.82573 1.33331 1.33334 2.8257 1.33334 4.66665V11.3333C1.33334 13.1743 2.82573 14.6666 4.66668 14.6666H11.3333C13.1743 14.6666 14.6667 13.1743 14.6667 11.3333V4.66665C14.6667 2.8257 13.1743 1.33331 11.3333 1.33331Z" stroke="#282B31" stroke-width="0.666667" stroke-linecap="round" stroke-linejoin="round"/>
<path id="Vector_2" d="M10.6667 7.58002C10.7489 8.13485 10.6542 8.7015 10.3958 9.19936C10.1375 9.69723 9.72877 10.101 9.22776 10.3531C8.72675 10.6053 8.15897 10.6931 7.6052 10.604C7.05143 10.5149 6.53985 10.2534 6.14323 9.85679C5.74662 9.46018 5.48516 8.9486 5.39605 8.39483C5.30694 7.84105 5.39472 7.27328 5.64689 6.77227C5.89907 6.27125 6.3028 5.86251 6.80066 5.60418C7.29853 5.34585 7.86518 5.25108 8.42001 5.33335C8.98596 5.41727 9.50991 5.68099 9.91447 6.08556C10.319 6.49012 10.5828 7.01407 10.6667 7.58002Z" stroke="#282B31" stroke-width="0.666667" stroke-linecap="round" stroke-linejoin="round"/>
<path id="Vector_3" d="M11.6667 4.33331H11.6733" stroke="#282B31" stroke-width="0.666667" stroke-linecap="round" stroke-linejoin="round"/>
</g>
</svg>
